<svg xmlns="http://www.w3.org/2000/svg" width="78" height="78" viewBox="0 0 78 78">
  <path id="Soustraction_30" data-name="Soustraction 30" d="M-2028.5,2559.5a38.753,38.753,0,0,1-15.18-3.065,38.868,38.868,0,0,1-12.4-8.358,38.868,38.868,0,0,1-8.358-12.4,38.758,38.758,0,0,1-3.065-15.18,38.761,38.761,0,0,1,3.065-15.181,38.874,38.874,0,0,1,8.358-12.4,38.866,38.866,0,0,1,12.4-8.358,38.753,38.753,0,0,1,15.18-3.065,38.756,38.756,0,0,1,15.181,3.065,38.877,38.877,0,0,1,12.4,8.358,38.871,38.871,0,0,1,8.358,12.4,38.756,38.756,0,0,1,3.065,15.181,38.754,38.754,0,0,1-3.065,15.18,38.871,38.871,0,0,1-8.358,12.4,38.873,38.873,0,0,1-12.4,8.358A38.756,38.756,0,0,1-2028.5,2559.5Zm-21.126-26.425h0a24.979,24.979,0,0,0,13.545,3.958,25.413,25.413,0,0,0,10.764-2.281,23.744,23.744,0,0,0,7.866-5.894,25.883,25.883,0,0,0,4.825-8.08,25.512,25.512,0,0,0,1.64-8.841c0-.376,0-.764-.027-1.147a18.849,18.849,0,0,0,4.424-4.561,17.593,17.593,0,0,1-5.08,1.366,8.789,8.789,0,0,0,3.878-4.861,17.484,17.484,0,0,1-5.6,2.131,8.854,8.854,0,0,0-6.445-2.786,8.759,8.759,0,0,0-6.243,2.588,8.765,8.765,0,0,0-2.577,6.233,9.965,9.965,0,0,0,.218,2.021,25.01,25.01,0,0,1-10.21-2.751,24.859,24.859,0,0,1-7.977-6.479,8.718,8.718,0,0,0-1.2,4.451,8.811,8.811,0,0,0,3.932,7.346,8.913,8.913,0,0,1-3.987-1.119v.109a8.843,8.843,0,0,0,2.021,5.629,8.864,8.864,0,0,0,5.052,3.028,9.366,9.366,0,0,1-2.321.3,11.084,11.084,0,0,1-1.666-.136,8.842,8.842,0,0,0,8.247,6.117,17.59,17.59,0,0,1-10.951,3.768A18.071,18.071,0,0,1-2049.626,2533.075Z" transform="translate(2067.5 -2481.5)" fill="#fff"/>
</svg>
