<svg xmlns="http://www.w3.org/2000/svg" xmlns:xlink="http://www.w3.org/1999/xlink" width="276" height="367" viewBox="0 0 276 367">
  <defs>
    <filter id="Rectangle_1" x="0" y="0" width="276" height="367" filterUnits="userSpaceOnUse">
      <feOffset dy="3" input="SourceAlpha"/>
      <feGaussianBlur stdDeviation="3" result="blur"/>
      <feFlood flood-opacity="0.161"/>
      <feComposite operator="in" in2="blur"/>
      <feComposite in="SourceGraphic"/>
    </filter>
  </defs>
  <g id="logo" transform="translate(-71.197 -22.582)">
    <g id="Groupe_3" data-name="Groupe 3" transform="translate(80.197 28.582)">
      <g transform="matrix(1, 0, 0, 1, -9, -6)" filter="url(#Rectangle_1)">
        <rect id="Rectangle_1-2" data-name="Rectangle 1" width="349" height="258" rx="30" transform="matrix(0, 1, -1, 0, 267, 6)" fill="#fff"/>
      </g>
      <g id="Groupe_1" data-name="Groupe 1" transform="translate(37.322 69.957)">
        <path id="Tracé_1" data-name="Tracé 1" d="M269.56,143.1c-1.113-.635-2.351-.629-3.88.608-9.7,7.847-38.493,16.4-47.108,1.836-2.368-4.164-4.286-7.711-6.146-10.336-5.4-7.62-14.093-1.3-21.346-3.436-3.491-1.027-6.557-3.909-8.829-10.783-1-3.036-.186-3.96,1.354-4.462,1.318-.429,6.894-2.265,8.746-2.971,14-5.329,5.78-6.424,20.337-13.63,0,0-.839-5.156-1.073-7.721-.434-4.748.613-5.224,3.416-1.894,2.212,2.628,4.153,4.918,4.153,4.918.816.916,1.562,1.089,1.9-.384L223,85.3c.918-5.389,2.654-5.486,5.454-.588,4.136,7.239,6.472,11.132,16.4,19.662,10.063,8.642,8.685,22.713,1.477,34.059-1.023,1.545-1.238,2.729-.346,3.813.705.857,1.972,1.338,4.132.592,18.094-6.25,31.559-26.18,22.773-47.927-6.963-17.235-23.624-29.538-43.372-31.836-7.486-.871-17.711-.4-30.087,5.546a27.818,27.818,0,0,0-2.53-5.879c-6.038-10.518-18.724-14.921-28.333-9.838-8.24,4.174-13.186,15.971-6.466,28.247A24.339,24.339,0,0,0,174.372,91.7a40.331,40.331,0,0,0-6.322,17.981c-.1.913-.364,1.433-.982,1.495s-1.015-.462-1.322-1.654c-1.669-6.478,1.065-14.163,1.1-14.263a26.417,26.417,0,0,1-15.137-28.385H107.434c-8.2,0-11.857,7.462-11.857,12.65h0c0,6.577,3.471,12.832,11.857,12.832h32.732c2.384,0,2.666,1.5,1.372,2.591h0l-15.271,12.837c-2.4,2.091-4.434,4.566-3.861,8.823.533,3.957,3.668,7.475,12.207,7.475h2.7c9.4-.042,16.038,3.283,16.038,12.435,0,6.614-5.549,12.953-16,13.017-9.068.055-16.153-3.617-23.681-11.147-4.444-4.444-10.612-5.171-16.671.4-4.762,4.379-7.331,10.16-1.942,16.245,3.726,4.208,18.42,19.286,42.588,19.286,22.917,0,37.6-14,42.24-19.759A54.024,54.024,0,0,0,221.882,174.3c18.861,0,37.967-9.74,47.612-26.361C270.456,146.281,271.351,144.118,269.56,143.1Z" transform="translate(-92.049 -50.793)" fill="#d90017"/>
        <path id="Tracé_2" data-name="Tracé 2" d="M144.577,115.593a9.429,9.429,0,0,0,9.573-8.762H135A9.429,9.429,0,0,0,144.577,115.593Z" transform="translate(0.27 69.645)" fill="#d90017"/>
      </g>
      <g id="Groupe_2" data-name="Groupe 2" transform="translate(42.016 35.239)">
        <path id="Tracé_3" data-name="Tracé 3" d="M94.809,126.1v-.821H93.539v6.554h1.269v-3.776c0-1.1.513-1.778,1.34-1.778a1.672,1.672,0,0,1,.884.259l.527-1.136a1.693,1.693,0,0,0-1.041-.287A1.953,1.953,0,0,0,94.809,126.1Z" transform="translate(-93.539 143.657)" fill="#161615"/>
        <path id="Tracé_4" data-name="Tracé 4" d="M98.338,125.115a3.357,3.357,0,0,0-3.378,3.434A3.451,3.451,0,0,0,98.538,132a3.693,3.693,0,0,0,2.622-.972l-.669-.834a2.765,2.765,0,0,1-1.91.725,2.268,2.268,0,0,1-2.338-2.052h5.416a1.788,1.788,0,0,0,.042-.439A3.294,3.294,0,0,0,98.338,125.115Zm-2.066,2.942a2.117,2.117,0,0,1,2.08-1.9,2.034,2.034,0,0,1,2.053,1.9Z" transform="translate(-90.485 143.657)" fill="#161615"/>
        <path id="Tracé_5" data-name="Tracé 5" d="M101.079,126.251a2.6,2.6,0,0,1,1.8.644l.727-.862a3.614,3.614,0,0,0-2.566-.917,3.442,3.442,0,1,0-.014,6.882,3.591,3.591,0,0,0,2.537-.916l-.655-.889a2.6,2.6,0,0,1-1.838.67,2.305,2.305,0,0,1,.013-4.611Z" transform="translate(-84.991 143.657)" fill="#161615"/>
        <path id="Tracé_6" data-name="Tracé 6" d="M103.195,125.115a3.442,3.442,0,1,0,3.491,3.434A3.433,3.433,0,0,0,103.195,125.115Zm.014,5.747a2.307,2.307,0,0,1,0-4.611,2.308,2.308,0,0,1,0,4.611Z" transform="translate(-80.265 143.657)" fill="#161615"/>
        <path id="Tracé_7" data-name="Tracé 7" d="M105.87,125.115a2.407,2.407,0,0,0-2.053.972v-.808h-1.269v6.554h1.269v-3.818a1.718,1.718,0,1,1,3.435,0v3.818h1.268v-4.009A2.507,2.507,0,0,0,105.87,125.115Z" transform="translate(-74.178 143.657)" fill="#161615"/>
        <path id="Tracé_8" data-name="Tracé 8" d="M108.5,125.115a2.407,2.407,0,0,0-2.053.972v-.808h-1.268v6.554h1.268v-3.818a1.718,1.718,0,1,1,3.435,0v3.818h1.268v-4.009A2.507,2.507,0,0,0,108.5,125.115Z" transform="translate(-68.517 143.657)" fill="#161615"/>
        <path id="Tracé_9" data-name="Tracé 9" d="M112.582,128.794a1.773,1.773,0,1,1-3.534,0v-3.627h-1.269v3.722a3.038,3.038,0,0,0,6.073,0v-3.722h-1.269Z" transform="translate(-62.936 143.769)" fill="#161615"/>
        <path id="Tracé_10" data-name="Tracé 10" d="M113.668,125.115a3.358,3.358,0,0,0-3.378,3.434A3.451,3.451,0,0,0,113.868,132a3.693,3.693,0,0,0,2.622-.972l-.669-.834a2.765,2.765,0,0,1-1.91.725,2.266,2.266,0,0,1-2.337-2.052h5.415a1.78,1.78,0,0,0,.044-.439A3.3,3.3,0,0,0,113.668,125.115Zm-2.066,2.942a2.117,2.117,0,0,1,2.08-1.9,2.034,2.034,0,0,1,2.053,1.9Z" transform="translate(-57.538 143.657)" fill="#161615"/>
        <path id="Tracé_11" data-name="Tracé 11" d="M119.58,128.1a2.883,2.883,0,0,0-2.395-1.149,3.444,3.444,0,0,0,0,6.882,2.879,2.879,0,0,0,2.395-1.19v1.026h1.268v-9.413H119.58Zm-2.21,4.6a2.307,2.307,0,0,1,0-4.611,2.307,2.307,0,0,1,0,4.611Z" transform="translate(-49.826 141.818)" fill="#161615"/>
        <path id="Tracé_12" data-name="Tracé 12" d="M116.684,127.077h.926l.742-2.818h-1.269Z" transform="translate(-43.797 141.818)" fill="#161615"/>
        <path id="Tracé_13" data-name="Tracé 13" d="M122.533,128.794a1.773,1.773,0,1,1-3.536,0v-3.627h-1.268v3.722a3.037,3.037,0,0,0,6.072,0v-3.722h-1.268Z" transform="translate(-41.55 143.769)" fill="#161615"/>
        <path id="Tracé_14" data-name="Tracé 14" d="M123.5,131.86c-.613,0-.942-.342-.942-1.04v-3.461h1.925v-1.081h-1.937V124.65h-1.255v1.628h-1.14v1.081h1.125v3.5A1.893,1.893,0,0,0,123.333,133a2.38,2.38,0,0,0,1.639-.561l-.585-.916A1.222,1.222,0,0,1,123.5,131.86Z" transform="translate(-36.338 142.658)" fill="#161615"/>
        <path id="Tracé_15" data-name="Tracé 15" d="M122.9,124.328a.753.753,0,1,0,.784.753A.776.776,0,0,0,122.9,124.328Z" transform="translate(-32.118 141.967)" fill="#161615"/>
        <rect id="Rectangle_2" data-name="Rectangle 2" width="1.269" height="6.554" transform="translate(90.157 268.936)" fill="#161615"/>
        <rect id="Rectangle_3" data-name="Rectangle 3" width="1.269" height="9.413" transform="translate(93.862 266.077)" fill="#161615"/>
        <rect id="Rectangle_4" data-name="Rectangle 4" width="1.269" height="6.554" transform="translate(97.567 268.936)" fill="#161615"/>
        <path id="Tracé_16" data-name="Tracé 16" d="M125.255,124.328a.753.753,0,1,0,.784.753A.776.776,0,0,0,125.255,124.328Z" transform="translate(-27.061 141.967)" fill="#161615"/>
        <path id="Tracé_17" data-name="Tracé 17" d="M128.8,131.86c-.613,0-.942-.342-.942-1.04v-3.461h1.925v-1.081h-1.939V124.65h-1.254v1.628h-1.141v1.081h1.127v3.5A1.893,1.893,0,0,0,128.632,133a2.38,2.38,0,0,0,1.639-.561l-.585-.916A1.222,1.222,0,0,1,128.8,131.86Z" transform="translate(-24.951 142.658)" fill="#161615"/>
        <path id="Tracé_18" data-name="Tracé 18" d="M134.586,125.115a2.88,2.88,0,0,0-2.381,1.164v-1h-1.268v9.236h1.268v-3.64A2.888,2.888,0,0,0,134.586,132a3.443,3.443,0,0,0,0-6.882Zm-.157,5.747a2.308,2.308,0,1,1,2.208-2.3A2.209,2.209,0,0,1,134.429,130.861Z" transform="translate(-13.164 143.657)" fill="#161615"/>
        <path id="Tracé_19" data-name="Tracé 19" d="M138.537,128.794a1.773,1.773,0,1,1-3.534,0v-3.627h-1.269v3.722a3.038,3.038,0,0,0,6.073,0v-3.722h-1.269Z" transform="translate(-7.155 143.769)" fill="#161615"/>
        <path id="Tracé_20" data-name="Tracé 20" d="M140.052,126.954a2.878,2.878,0,0,0-2.379,1.164v-3.859H136.4v9.413h1.269v-.958a2.885,2.885,0,0,0,2.379,1.122,3.443,3.443,0,0,0,0-6.882Zm-.157,5.747a2.307,2.307,0,1,1,2.21-2.3A2.209,2.209,0,0,1,139.895,132.7Z" transform="translate(-1.417 141.818)" fill="#161615"/>
        <rect id="Rectangle_5" data-name="Rectangle 5" width="1.269" height="9.413" transform="translate(143.906 266.077)" fill="#161615"/>
        <path id="Tracé_21" data-name="Tracé 21" d="M141.147,124.328a.753.753,0,1,0,.782.753A.775.775,0,0,0,141.147,124.328Z" transform="translate(7.092 141.967)" fill="#161615"/>
        <rect id="Rectangle_6" data-name="Rectangle 6" width="1.269" height="6.554" transform="translate(147.611 268.936)" fill="#161615"/>
        <path id="Tracé_22" data-name="Tracé 22" d="M147.132,126.264a2.881,2.881,0,0,0-2.395-1.149,3.444,3.444,0,0,0,0,6.882,2.878,2.878,0,0,0,2.395-1.19v3.708H148.4v-9.236h-1.269Zm-2.21,4.6a2.307,2.307,0,0,1,0-4.611,2.307,2.307,0,0,1,0,4.611Z" transform="translate(9.387 143.657)" fill="#161615"/>
        <path id="Tracé_23" data-name="Tracé 23" d="M149.189,128.794a1.773,1.773,0,1,1-3.536,0v-3.627h-1.268v3.722a3.037,3.037,0,0,0,6.072,0v-3.722h-1.268Z" transform="translate(15.738 143.769)" fill="#161615"/>
        <path id="Tracé_24" data-name="Tracé 24" d="M150.275,125.115a3.358,3.358,0,0,0-3.379,3.434A3.452,3.452,0,0,0,150.474,132a3.7,3.7,0,0,0,2.623-.972l-.671-.834a2.763,2.763,0,0,1-1.91.725,2.267,2.267,0,0,1-2.337-2.052H153.6a1.85,1.85,0,0,0,.044-.439A3.3,3.3,0,0,0,150.275,125.115Zm-2.067,2.942a2.119,2.119,0,0,1,2.081-1.9,2.033,2.033,0,0,1,2.052,1.9Z" transform="translate(21.134 143.657)" fill="#161615"/>
        <rect id="Rectangle_7" data-name="Rectangle 7" width="174.21" height="1.043" transform="translate(0 257.191)" fill="#161615"/>
        <path id="Tracé_25" data-name="Tracé 25" d="M99.985,53.785h6.252V48.773H99.985V45.246h7.606V39.926H93.539V58.487h6.446Z" transform="translate(-93.539 -39.431)" fill="#161615"/>
        <path id="Tracé_26" data-name="Tracé 26" d="M112.45,45.368a8.627,8.627,0,0,1,1.868-.248c2.289,0,3.031,1.175,3.031,3.65V58.825h6.445V48.182c0-6-3.642-8.414-9.411-8.414A31.525,31.525,0,0,0,106,41.037V58.825h6.447Z" transform="translate(-66.752 -39.768)" fill="#161615"/>
        <path id="Tracé_27" data-name="Tracé 27" d="M131.545,49.576c0-6.435-3.772-9.807-10.991-9.807-2.03,0-4.867.217-7.7.495v18.53c3.158.311,5.672.527,7.7.527C127.773,59.319,131.545,55.978,131.545,49.576ZM119.3,45.12a10.162,10.162,0,0,1,2-.125c2.578,0,3.9,1.517,3.9,4.455,0,3.031-1.321,4.608-3.9,4.608a10.186,10.186,0,0,1-2-.123Z" transform="translate(-52.031 -39.768)" fill="#161615"/>
        <path id="Tracé_28" data-name="Tracé 28" d="M128.159,59.319a6.558,6.558,0,0,0,5.221-2.258v1.763h6.445V40.264H133.38v1.762a6.562,6.562,0,0,0-5.221-2.258c-5.027,0-8.7,4.053-8.7,9.775S123.132,59.319,128.159,59.319Zm1.547-14.2c2.16,0,3.578,1.794,3.578,4.423s-1.418,4.423-3.578,4.423c-2.126,0-3.609-1.794-3.609-4.423S127.579,45.12,129.706,45.12Z" transform="translate(-37.836 -39.768)" fill="#161615"/>
        <path id="Tracé_29" data-name="Tracé 29" d="M131.968,58.486h6.445V44.937h5.253V39.926H126.715v5.011h5.254Z" transform="translate(-22.24 -39.43)" fill="#161615"/>
        <rect id="Rectangle_8" data-name="Rectangle 8" width="6.446" height="18.56" transform="translate(123.913 0.495)" fill="#161615"/>
        <path id="Tracé_30" data-name="Tracé 30" d="M149.651,45.368a8.628,8.628,0,0,1,1.868-.248c2.289,0,3.031,1.175,3.031,3.65V58.825H161V48.182c0-6-3.642-8.414-9.411-8.414a31.525,31.525,0,0,0-8.38,1.269V58.825h6.447Z" transform="translate(13.2 -39.768)" fill="#161615"/>
        <path id="Tracé_31" data-name="Tracé 31" d="M101.375,103.614a9.421,9.421,0,0,1,1.881-.264c2.39,0,3.29,1.429,3.29,4.438v12.221h7.836V107.073a12.492,12.492,0,0,0-.392-3.347,8.669,8.669,0,0,1,2.273-.376c2.35,0,3.29,1.317,3.29,4.438v12.221h7.836V106.884c0-6.731-3.252-10-9.95-10a18.514,18.514,0,0,0-7.327,1.467,13.89,13.89,0,0,0-6.777-1.5,38.063,38.063,0,0,0-9.795,1.54v21.624h7.836Z" transform="translate(-93.539 82.9)" fill="#161615"/>
        <rect id="Rectangle_9" data-name="Rectangle 9" width="7.836" height="22.562" transform="translate(38.47 180.347)" fill="#161615"/>
        <path id="Tracé_32" data-name="Tracé 32" d="M109.844,97.036V119.6h15.722v-6.468H117.68v-16.1Z" transform="translate(-58.497 83.31)" fill="#161615"/>
        <path id="Tracé_33" data-name="Tracé 33" d="M131.866,113.131H123.98v-16.1h-7.836V119.6h15.722Z" transform="translate(-44.958 83.31)" fill="#161615"/>
        <rect id="Rectangle_10" data-name="Rectangle 10" width="7.836" height="22.562" transform="translate(91.023 180.347)" fill="#161615"/>
        <path id="Tracé_34" data-name="Tracé 34" d="M143.074,103.651a10.507,10.507,0,0,1,2.271-.3c2.783,0,3.683,1.429,3.683,4.437v12.222h7.836V107.073c0-7.3-4.427-10.228-11.439-10.228a38.35,38.35,0,0,0-10.187,1.541v21.622h7.835Z" transform="translate(-3.919 82.9)" fill="#161615"/>
        <path id="Tracé_35" data-name="Tracé 35" d="M162.015,112.677c0-8.123-10.7-6.581-10.7-8.725,0-.789.942-1.09,2.233-1.09a17.24,17.24,0,0,1,6.034,1.279l1.763-5.941a25.4,25.4,0,0,0-7.8-1.354c-5.563,0-9.99,2.369-9.99,7.6,0,7.783,10.657,6.392,10.657,8.686,0,.977-1.292,1.391-3.017,1.391a17.123,17.123,0,0,1-6.425-1.391l-1.724,6.129a23.733,23.733,0,0,0,7.835,1.392C156.844,120.649,162.015,118.128,162.015,112.677Z" transform="translate(12.876 82.9)" fill="#161615"/>
        <path id="Tracé_36" data-name="Tracé 36" d="M105.177,108.506c-2.657,0-6.571.25-11.637.742v28.114c5.116.5,8.671.791,11.637.791,10.911,0,16.678-5.109,16.678-14.776C121.855,113.648,116.088,108.506,105.177,108.506Zm1.136,21.928a15.383,15.383,0,0,1-3.109-.195l-.139-.033v-13.8l.139-.033a15.451,15.451,0,0,1,3.109-.195c4.033,0,6.165,2.423,6.165,7.009C112.478,127.929,110.346,130.434,106.313,130.434Z" transform="translate(-93.538 107.962)" fill="#161615"/>
        <path id="Tracé_37" data-name="Tracé 37" d="M139.217,137.392V109.265h-9.525v3.009l-.321-.365a9.886,9.886,0,0,0-7.872-3.4c-7.629,0-13.167,6.234-13.167,14.822s5.538,14.824,13.167,14.824a9.886,9.886,0,0,0,7.872-3.4l.321-.365v3.008Zm-15.345-7.1c-3.367,0-5.72-2.862-5.72-6.961s2.352-6.96,5.72-6.96c3.393,0,5.671,2.8,5.671,6.96S127.265,130.289,123.872,130.289Z" transform="translate(-61.746 107.963)" fill="#161615"/>
        <path id="Tracé_38" data-name="Tracé 38" d="M163.015,137.392V121c0-8.378-4.049-12.45-12.377-12.45a23.174,23.174,0,0,0-9.173,1.835l-.085.036-.08-.043a17.429,17.429,0,0,0-8.464-1.874,47.544,47.544,0,0,0-12.179,1.9v26.984h9.525V116.734l.143-.03a11.86,11.86,0,0,1,2.414-.337c3.038,0,4.335,1.726,4.335,5.775v15.249H146.6V121.24a15.474,15.474,0,0,0-.488-4.179l-.046-.165.171-.048a11.24,11.24,0,0,1,2.919-.48c3.038,0,4.335,1.726,4.335,5.775v15.249Z" transform="translate(-35.256 107.963)" fill="#161615"/>
        <path id="Tracé_39" data-name="Tracé 39" d="M155.377,119.277c-2.174-.535-3.745-.921-3.745-1.976,0-.708.52-1.551,3-1.551a22.016,22.016,0,0,1,7.5,1.545l2.119-7.144a31.774,31.774,0,0,0-9.617-1.645c-7.78,0-12.427,3.518-12.427,9.413,0,6.234,5.487,7.693,9.494,8.759,2.211.588,3.957,1.052,3.957,2.2,0,1.227-1.454,1.931-3.989,1.931a22.018,22.018,0,0,1-7.991-1.686l-2.075,7.381a29.755,29.755,0,0,0,9.669,1.691c6.7,0,13.861-2.6,13.861-9.886C165.131,121.676,159.261,120.233,155.377,119.277Z" transform="translate(9.755 107.963)" fill="#161615"/>
        <rect id="Rectangle_11" data-name="Rectangle 11" width="9.516" height="20.969" transform="translate(135.447 224.357)" fill="#161615"/>
        <path id="Tracé_40" data-name="Tracé 40" d="M103.554,120.345h8.455l3.538-11.647h-8.94Z" transform="translate(-72.015 108.375)" fill="#161615"/>
        <path id="Tracé_41" data-name="Tracé 41" d="M138.85,120.594c7.5,0,12.743-4.877,12.743-11.859,0-7.007-5.24-11.9-12.743-11.9-7.529,0-12.787,4.894-12.787,11.9C126.063,115.717,131.321,120.594,138.85,120.594Zm0-17.3a5.071,5.071,0,0,1,5.194,5.4,5.221,5.221,0,1,1-10.432,0A5.037,5.037,0,0,1,138.85,103.292Z" transform="translate(-23.64 82.874)" fill="#161615"/>
        <path id="Tracé_42" data-name="Tracé 42" d="M109,59.258c6.147,0,10.441-4,10.441-9.724,0-5.745-4.294-9.757-10.441-9.757-6.167,0-10.473,4.011-10.473,9.757C98.529,55.259,102.835,59.258,109,59.258Zm0-13.85A3.835,3.835,0,0,1,112.92,49.5a3.939,3.939,0,1,1-7.87,0A3.85,3.85,0,0,1,109,45.408Z" transform="translate(-82.816 -39.749)" fill="#161615"/>
        <path id="Tracé_43" data-name="Tracé 43" d="M146.206,59.258c6.147,0,10.44-4,10.44-9.724,0-5.745-4.292-9.757-10.44-9.757-6.168,0-10.476,4.011-10.476,9.757C135.73,55.259,140.038,59.258,146.206,59.258Zm0-13.85a3.835,3.835,0,0,1,3.918,4.093,3.94,3.94,0,1,1-7.872,0A3.851,3.851,0,0,1,146.206,45.408Z" transform="translate(-2.863 -39.749)" fill="#161615"/>
        <path id="Tracé_44" data-name="Tracé 44" d="M130.569,125.115a3.358,3.358,0,0,0-3.379,3.434A3.451,3.451,0,0,0,130.769,132a3.692,3.692,0,0,0,2.622-.972l-.669-.834a2.765,2.765,0,0,1-1.91.725,2.267,2.267,0,0,1-2.337-2.052h5.416a1.854,1.854,0,0,0,.042-.439A3.294,3.294,0,0,0,130.569,125.115Zm-2.067,2.942a2.117,2.117,0,0,1,2.08-1.9,2.033,2.033,0,0,1,2.053,1.9Z" transform="translate(-21.216 143.657)" fill="#161615"/>
        <path id="Tracé_45" data-name="Tracé 45" d="M129.31,125.966l1.4-1.706h-1.487l-1.117,1.706Z" transform="translate(-19.246 141.818)" fill="#161615"/>
      </g>
    </g>
  </g>
</svg>
