<svg xmlns="http://www.w3.org/2000/svg" width="141.146" height="94.965" viewBox="0 0 141.146 94.965">
  <path id="Tracé_84601" data-name="Tracé 84601" d="M228.515,121.754a2.44,2.44,0,0,0-2.983.467c-7.455,6.032-29.592,12.611-36.216,1.412-1.82-3.2-3.295-5.928-4.725-7.946-4.149-5.858-10.835-1-16.41-2.641-2.683-.79-5.041-3.005-6.787-8.29-.772-2.334-.143-3.044,1.041-3.43,1.013-.33,5.3-1.742,6.724-2.284,10.762-4.1,4.444-4.938,15.635-10.479,0,0-.645-3.964-.825-5.936-.334-3.65.471-4.016,2.626-1.456,1.7,2.02,3.193,3.781,3.193,3.781.627.7,1.2.837,1.461-.295l1.469-7.335c.706-4.143,2.04-4.218,4.193-.452,3.179,5.565,4.976,8.558,12.612,15.115,7.736,6.644,6.677,17.461,1.136,26.184-.786,1.188-.952,2.1-.266,2.931.542.659,1.516,1.029,3.176.455,13.91-4.8,24.262-20.127,17.507-36.845C225.723,71.461,212.915,62,197.732,60.237c-5.755-.669-13.616-.3-23.13,4.263a21.386,21.386,0,0,0-1.945-4.519c-4.642-8.086-14.394-11.471-21.782-7.563-6.335,3.209-10.137,12.278-4.971,21.716a18.711,18.711,0,0,0,9.432,8.108,31.005,31.005,0,0,0-4.86,13.823c-.075.7-.28,1.1-.755,1.149s-.78-.356-1.016-1.271c-1.283-4.98.819-10.888.842-10.965a20.309,20.309,0,0,1-11.637-21.822H103.877c-6.3,0-9.115,5.737-9.115,9.725h0c0,5.056,2.669,9.865,9.115,9.865H129.04c1.833,0,2.049,1.151,1.055,1.992h0l-11.74,9.869c-1.842,1.608-3.408,3.511-2.968,6.783.41,3.042,2.82,5.747,9.385,5.747h2.078c7.228-.032,12.33,2.524,12.33,9.56,0,5.084-4.266,9.958-12.3,10.007-6.971.043-12.418-2.781-18.206-8.569-3.416-3.417-8.158-3.975-12.816.309-3.661,3.366-5.636,7.811-1.493,12.488,2.864,3.235,14.161,14.826,32.741,14.826a42.841,42.841,0,0,0,32.473-15.19,41.533,41.533,0,0,0,32.28,15.177c14.5,0,29.189-7.488,36.6-20.266C229.2,124.2,229.892,122.539,228.515,121.754Z" transform="translate(-92.049 -50.793)" fill="#d90017"/>
</svg>
