<svg xmlns="http://www.w3.org/2000/svg" width="59.752" height="77.32" viewBox="0 0 59.752 77.32">
  <g id="Groupe_34019" data-name="Groupe 34019" transform="translate(0.5 0.5)">
    <g id="Groupe_34018" data-name="Groupe 34018">
      <path id="Soustraction_22" data-name="Soustraction 22" d="M29.4,76.32a1.26,1.26,0,0,1-.935-.41c-.4-.44-.925-1-1.535-1.652l-.14-.152a181.634,181.634,0,0,1-16.1-19.247C3.588,44.769-.01,36.106,0,29.112A28.848,28.848,0,0,1,8.612,8.473a29.156,29.156,0,0,1,9.33-6.205,29.963,29.963,0,0,1,22.867,0,29.2,29.2,0,0,1,9.34,6.205,28.8,28.8,0,0,1,8.6,20.639c0,7.005-3.6,15.683-10.709,25.791a181.657,181.657,0,0,1-16.08,19.244l-.176.187c-.576.618-1.073,1.153-1.459,1.575A1.256,1.256,0,0,1,29.4,76.32ZM29.373,5.609a23.688,23.688,0,1,0,9.25,1.867A23.626,23.626,0,0,0,29.373,5.609Z" fill="#fff" stroke="rgba(0,0,0,0)" stroke-miterlimit="10" stroke-width="1"/>
    </g>
    <path id="Tracé_84387" data-name="Tracé 84387" d="M10.9,0,0,7.139V9.164H1.857V20.831h18.1V9.164H21.8V7.139Zm3.416,12.57L10.9,15.986,7.486,12.57A2.026,2.026,0,0,1,10.346,9.7l.556.556.546-.556a2.029,2.029,0,1,1,2.869,2.869Z" transform="translate(18.477 17.329)" fill="#fff"/>
  </g>
</svg>
