<svg xmlns="http://www.w3.org/2000/svg" width="78" height="78" viewBox="0 0 78 78">
  <path id="Soustraction_31" data-name="Soustraction 31" d="M-2030,2558a38.761,38.761,0,0,1-15.181-3.065,38.878,38.878,0,0,1-12.4-8.358,38.869,38.869,0,0,1-8.358-12.4A38.758,38.758,0,0,1-2069,2519a38.757,38.757,0,0,1,3.065-15.18,38.878,38.878,0,0,1,8.358-12.4,38.873,38.873,0,0,1,12.4-8.358A38.751,38.751,0,0,1-2030,2480a38.751,38.751,0,0,1,15.181,3.065,38.868,38.868,0,0,1,12.4,8.358,38.878,38.878,0,0,1,8.358,12.4A38.759,38.759,0,0,1-1991,2519a38.759,38.759,0,0,1-3.065,15.181,38.871,38.871,0,0,1-8.358,12.4,38.873,38.873,0,0,1-12.4,8.358A38.761,38.761,0,0,1-2030,2558Zm-5.066-38.031v20.369h9.109v-20.369h6.792l1.293-8.426h-8.085v-5.468a4.719,4.719,0,0,1,1.017-3.141,4.691,4.691,0,0,1,3.733-1.412h3.676v-7.174a45.093,45.093,0,0,0-6.525-.569,11,11,0,0,0-8,2.931c-1.968,1.97-3.008,4.878-3.008,8.41v6.422h-7.4v8.426Z" transform="translate(2069 -2480)" fill="#fff"/>
</svg>
