<svg xmlns="http://www.w3.org/2000/svg" width="78" height="78" viewBox="0 0 78 78">
  <path id="Soustraction_32" data-name="Soustraction 32" d="M-2030,2558a38.761,38.761,0,0,1-15.181-3.065,38.878,38.878,0,0,1-12.4-8.358,38.869,38.869,0,0,1-8.358-12.4A38.758,38.758,0,0,1-2069,2519a38.757,38.757,0,0,1,3.065-15.18,38.878,38.878,0,0,1,8.358-12.4,38.873,38.873,0,0,1,12.4-8.358A38.751,38.751,0,0,1-2030,2480a38.751,38.751,0,0,1,15.181,3.065,38.868,38.868,0,0,1,12.4,8.358,38.878,38.878,0,0,1,8.358,12.4A38.759,38.759,0,0,1-1991,2519a38.759,38.759,0,0,1-3.065,15.181,38.871,38.871,0,0,1-8.358,12.4,38.873,38.873,0,0,1-12.4,8.358A38.761,38.761,0,0,1-2030,2558Zm1.262-61.176a21.143,21.143,0,0,0-21.119,21.119,21.188,21.188,0,0,0,2.816,10.559l-3,10.94,11.2-2.94a21.11,21.11,0,0,0,10.094,2.568h.01a21.133,21.133,0,0,0,8.239-1.663,21.466,21.466,0,0,0,6.783-4.53,21.19,21.19,0,0,0,4.6-6.714,20.612,20.612,0,0,0,1.695-8.212,20.2,20.2,0,0,0-1.7-8.085,22.188,22.188,0,0,0-4.686-6.851A20.952,20.952,0,0,0-2028.738,2496.823Zm0,38.689a17.518,17.518,0,0,1-8.942-2.445l-.638-.381-6.64,1.741,1.769-6.479-.418-.666a17.506,17.506,0,0,1-2.683-9.341,17.576,17.576,0,0,1,17.561-17.552,17.4,17.4,0,0,1,12.406,5.146,18.667,18.667,0,0,1,3.913,5.693,16.572,16.572,0,0,1,1.423,6.721,17.108,17.108,0,0,1-1.413,6.83,17.62,17.62,0,0,1-3.834,5.582,17.893,17.893,0,0,1-5.648,3.767A17.6,17.6,0,0,1-2028.738,2535.513Zm-7.487-27.312a1.965,1.965,0,0,0-1.407.656l-.105.114a5.831,5.831,0,0,0-1.74,4.291,9.986,9.986,0,0,0,2.129,5.432l.021.029c.018.024.052.072.1.141,1.488,2.127,4.625,5.973,8.918,7.831a13.087,13.087,0,0,0,5.1,1.424,8.257,8.257,0,0,0,1.236-.1c.967-.144,3.105-1.234,3.558-2.511a4.43,4.43,0,0,0,.3-2.512c-.1-.2-.363-.322-.755-.51l-.245-.118c-.544-.278-3.13-1.545-3.605-1.712a1.731,1.731,0,0,0-.566-.139.732.732,0,0,0-.623.405c-.387.586-1.543,1.923-1.674,2.074a.728.728,0,0,1-.57.3,1.3,1.3,0,0,1-.572-.17c-3.094-1.548-5.122-2.742-7.183-6.279-.3-.518-.1-.731.31-1.157a6.477,6.477,0,0,0,1.241-1.726.985.985,0,0,0-.048-.924c-.092-.184-.622-1.474-1.089-2.612-.208-.507-.4-.98-.538-1.306-.376-.9-.758-.9-1.065-.9-.044,0-.085,0-.124,0C-2035.521,2508.2-2035.879,2508.2-2036.225,2508.2Z" transform="translate(2069 -2480)" fill="#fff"/>
</svg>
